<mxfile host="app.diagrams.net" modified="2024-04-04T05:05:50.820Z" agent="Mozilla/5.0 (Windows NT 10.0; Win64; x64) AppleWebKit/537.36 (KHTML, like Gecko) Chrome/122.0.0.0 Safari/537.36 Edg/122.0.0.0" version="24.2.2" etag="As97_5jrkrXY44FcNd1N" type="github">
  <diagram name="Page-1" id="K5Vurt7epcjHP_4cPc88">
    <mxGraphModel>
      <root>
        <mxCell id="0" />
        <mxCell id="1" parent="0" />
      </root>
    </mxGraphModel>
  </diagram>
</mxfile>
